<svg xmlns="http://www.w3.org/2000/svg" viewBox="0 0 680 680">
  <defs>
    <linearGradient id="bg" x1="0%" y1="0%" x2="100%" y2="100%">
      <stop offset="0%" style="stop-color:#0f1218"/>
      <stop offset="100%" style="stop-color:#1a1e2c"/>
    </linearGradient>
    <linearGradient id="gold1" x1="0%" y1="0%" x2="0%" y2="100%">
      <stop offset="0%" style="stop-color:#e8c96a"/>
      <stop offset="100%" style="stop-color:#c9a84c"/>
    </linearGradient>
    <linearGradient id="gold2" x1="0%" y1="0%" x2="100%" y2="100%">
      <stop offset="0%" style="stop-color:#fff3b0"/>
      <stop offset="100%" style="stop-color:#e8c96a"/>
    </linearGradient>
  </defs>
  <rect width="680" height="680" rx="140" fill="url(#bg)"/>
  <ellipse cx="340" cy="380" rx="200" ry="160" fill="#c9a84c" opacity="0.06"/>
  <rect x="148" y="220" width="36" height="210" rx="8" fill="url(#gold1)"/>
  <rect x="222" y="220" width="36" height="210" rx="8" fill="url(#gold1)"/>
  <rect x="322" y="220" width="36" height="210" rx="8" fill="url(#gold1)"/>
  <rect x="422" y="220" width="36" height="210" rx="8" fill="url(#gold1)"/>
  <rect x="496" y="220" width="36" height="210" rx="8" fill="url(#gold1)"/>
  <rect x="128" y="196" width="424" height="28" rx="8" fill="url(#gold1)"/>
  <rect x="148" y="170" width="384" height="30" rx="8" fill="url(#gold2)" opacity="0.9"/>
  <polygon points="340,100 128,170 552,170" fill="url(#gold2)"/>
  <circle cx="340" cy="96" r="18" fill="#e8c96a" opacity="0.3"/>
  <circle cx="340" cy="96" r="10" fill="#fff3b0"/>
  <circle cx="340" cy="96" r="5" fill="#ffffff"/>
  <rect x="128" y="430" width="424" height="28" rx="6" fill="url(#gold1)" opacity="0.95"/>
  <rect x="108" y="454" width="464" height="30" rx="6" fill="url(#gold1)" opacity="0.85"/>
  <rect x="88" y="480" width="504" height="32" rx="8" fill="url(#gold1)"/>
  <rect x="304" y="340" width="72" height="90" rx="10" fill="#0f1218" opacity="0.7"/>
  <rect x="316" y="352" width="20" height="40" rx="4" fill="#c9a84c" opacity="0.4"/>
  <rect x="344" y="352" width="20" height="40" rx="4" fill="#c9a84c" opacity="0.4"/>
  <rect x="240" y="526" width="200" height="3" rx="2" fill="#c9a84c" opacity="0.4"/>
  <text x="340" y="590" text-anchor="middle" font-family="Tahoma, Arial" font-size="28" font-weight="bold" fill="#c9a84c" opacity="0.8">آموزش</text>
  <text x="340" y="625" text-anchor="middle" font-family="Tahoma, Arial" font-size="20" fill="#e8c96a" opacity="0.5">معاونت متوسطه</text>
</svg>